<?xml version="1.0" standalone="no"?>
<!DOCTYPE svg PUBLIC "-//W3C//DTD SVG 20010904//EN"
 "http://www.w3.org/TR/2001/REC-SVG-20010904/DTD/svg10.dtd">
<svg version="1.0" xmlns="http://www.w3.org/2000/svg"
 width="200.000000pt" height="200.000000pt" viewBox="0 0 200.000000 200.000000"
 preserveAspectRatio="xMidYMid meet">

<g transform="translate(0.000000,200.000000) scale(0.100000,-0.100000)"
fill="#000000" stroke="none">
<path d="M345 1868 c-136 -139 -213 -316 -223 -510 -6 -130 -2 -138 74 -138
64 0 74 13 74 90 0 167 96 383 219 493 17 15 31 35 31 45 0 23 -65 92 -87 92
-9 0 -49 -33 -88 -72z"/>
<path d="M1515 1903 c-19 -21 -35 -45 -35 -54 0 -9 26 -43 58 -76 111 -118
178 -270 189 -433 8 -114 11 -120 77 -120 75 0 80 8 73 133 -7 130 -25 197
-88 325 -41 83 -66 119 -127 183 -43 43 -85 79 -95 79 -10 0 -34 -17 -52 -37z"/>
<path d="M913 1900 c-216 -39 -399 -205 -480 -435 l-28 -80 -5 -380 c-6 -442
-3 -428 -115 -544 -36 -37 -65 -73 -65 -79 0 -16 1576 -17 1585 -2 4 6 -25 43
-63 83 -113 117 -106 85 -113 517 -7 419 -8 432 -80 579 -73 149 -216 274
-367 321 -76 24 -198 32 -269 20z"/>
<path d="M810 238 c0 -18 10 -51 23 -73 65 -115 228 -136 323 -41 41 40 72
114 59 136 -4 6 -87 10 -206 10 l-199 0 0 -32z"/>
</g>
</svg>
