<?xml version="1.0" standalone="no"?>
<!DOCTYPE svg PUBLIC "-//W3C//DTD SVG 20010904//EN"
 "http://www.w3.org/TR/2001/REC-SVG-20010904/DTD/svg10.dtd">
<svg version="1.0" xmlns="http://www.w3.org/2000/svg"
 width="200.000000pt" height="200.000000pt" viewBox="0 0 200.000000 200.000000"
 preserveAspectRatio="xMidYMid meet">

<g transform="translate(0.000000,200.000000) scale(0.100000,-0.100000)"
fill="#000000" stroke="none">
<path d="M37 1733 c-4 -3 -7 -264 -7 -579 0 -557 1 -574 19 -584 31 -16 1882
-14 1904 2 16 12 17 56 15 588 l-3 575 -961 3 c-528 1 -964 -1 -967 -5z m1861
-570 l-3 -508 -895 0 -895 0 -3 508 -2 507 900 0 900 0 -2 -507z"/>
<path d="M806 523 c-2 -10 -7 -49 -11 -87 -6 -61 -11 -73 -46 -111 -21 -23
-39 -47 -39 -54 0 -8 80 -11 290 -11 210 0 290 3 290 11 0 7 -18 31 -39 54
-35 38 -40 50 -46 111 -11 115 10 104 -205 104 -171 0 -189 -2 -194 -17z"/>
</g>
</svg>
