<?xml version="1.0" standalone="no"?>
<!DOCTYPE svg PUBLIC "-//W3C//DTD SVG 20010904//EN"
 "http://www.w3.org/TR/2001/REC-SVG-20010904/DTD/svg10.dtd">
<svg version="1.0" xmlns="http://www.w3.org/2000/svg"
 width="452.000000pt" height="452.000000pt" viewBox="0 0 452.000000 452.000000"
 preserveAspectRatio="xMidYMid meet">

<g transform="translate(0.000000,452.000000) scale(0.100000,-0.100000)"
fill="#000000" stroke="none">
<path d="M2010 4514 c-804 -58 -1413 -318 -1590 -678 -22 -45 -45 -105 -50
-135 -6 -34 -10 -550 -10 -1400 0 -1492 -3 -1410 67 -1543 143 -272 566 -501
1118 -603 258 -47 400 -59 715 -59 221 0 331 4 440 17 812 100 1353 391 1445
778 22 96 22 2732 0 2828 -91 383 -648 685 -1430 776 -134 15 -584 27 -705 19z
m515 -184 c487 -36 918 -159 1186 -339 97 -64 204 -177 237 -250 37 -80 36
-174 -2 -254 -122 -254 -577 -472 -1161 -556 -842 -122 -1784 71 -2124 434
-81 87 -115 160 -115 250 0 92 31 159 115 249 172 185 473 322 887 405 309 62
659 84 977 61z m-1807 -1249 c246 -166 655 -294 1117 -347 206 -24 643 -24
848 0 270 31 503 81 708 151 208 72 448 204 557 308 l33 32 -3 -290 -3 -290
-33 -67 c-117 -237 -531 -447 -1063 -537 -357 -61 -798 -67 -1144 -15 -589 87
-1033 299 -1157 552 l-33 67 -3 288 -3 289 61 -51 c33 -28 86 -68 118 -90z
m-132 -802 c41 -43 192 -143 294 -194 234 -117 547 -203 915 -252 189 -25 724
-25 925 0 460 57 841 181 1100 358 47 32 98 72 114 88 17 17 33 31 38 31 4 0
8 -118 8 -263 0 -285 -6 -330 -56 -409 -165 -262 -660 -467 -1281 -533 -194
-21 -571 -21 -764 0 -621 65 -1118 272 -1282 532 -51 80 -57 125 -57 410 0
145 4 263 8 263 5 0 21 -14 38 -31z m189 -1041 c523 -310 1453 -419 2235 -262
397 79 699 209 918 393 l54 45 -4 -245 -3 -244 -29 -60 c-40 -83 -175 -214
-286 -279 -392 -230 -1046 -351 -1655 -306 -717 53 -1283 285 -1432 587 l-28
58 -3 243 -4 243 89 -69 c48 -38 115 -85 148 -104z"/>
</g>
</svg>
