<?xml version="1.0" standalone="no"?>
<!DOCTYPE svg PUBLIC "-//W3C//DTD SVG 20010904//EN"
 "http://www.w3.org/TR/2001/REC-SVG-20010904/DTD/svg10.dtd">
<svg version="1.0" xmlns="http://www.w3.org/2000/svg"
 width="512.000000pt" height="512.000000pt" viewBox="0 0 512.000000 512.000000"
 preserveAspectRatio="xMidYMid meet">

<g transform="translate(0.000000,512.000000) scale(0.100000,-0.100000)"
fill="#000000" stroke="none">
<path d="M2128 4797 c-117 -37 -176 -127 -187 -284 l-6 -97 -105 -44 c-153
-65 -148 -65 -222 6 -85 80 -117 96 -203 96 -54 0 -80 -5 -115 -23 -61 -31
-579 -547 -613 -610 -36 -65 -43 -127 -22 -196 13 -45 30 -71 82 -127 76 -81
76 -74 11 -228 l-44 -105 -97 -6 c-77 -5 -109 -12 -153 -34 -64 -31 -117 -95
-133 -162 -15 -56 -15 -790 0 -846 16 -67 69 -131 133 -162 44 -22 76 -29 153
-34 l97 -6 44 -105 c65 -154 65 -147 -11 -228 -52 -56 -69 -82 -82 -127 -20
-66 -14 -128 17 -190 29 -58 547 -576 612 -612 43 -23 62 -28 121 -27 86 0
118 16 203 96 74 71 69 71 222 6 l105 -44 6 -97 c5 -77 12 -109 34 -153 31
-64 95 -117 162 -133 56 -15 790 -15 846 0 66 16 131 69 161 132 21 42 28 76
34 153 l7 98 105 44 c153 65 148 65 222 -6 85 -81 117 -96 203 -96 58 0 79 5
121 28 65 35 583 552 612 611 31 62 37 124 17 190 -13 45 -30 71 -82 127 -76
81 -76 74 -11 228 l44 105 97 6 c77 5 109 12 153 34 64 31 117 95 133 162 15
56 15 790 0 846 -16 67 -69 131 -133 162 -44 22 -76 29 -153 34 l-97 6 -44
105 c-65 154 -65 147 11 228 52 56 69 82 82 127 21 69 14 131 -22 196 -32 60
-553 579 -608 607 -62 31 -124 37 -190 17 -45 -13 -71 -30 -127 -82 -81 -76
-74 -76 -228 -11 l-105 44 -6 97 c-5 77 -12 109 -34 153 -31 64 -95 117 -162
133 -60 16 -806 13 -855 -2z m701 -404 c22 -129 99 -240 201 -290 93 -46 294
-124 343 -134 92 -17 210 14 292 77 25 19 48 34 52 34 10 0 363 -353 363 -362
0 -4 -15 -28 -34 -53 -63 -82 -94 -200 -77 -292 10 -49 88 -250 134 -343 50
-102 161 -179 290 -201 l67 -11 0 -258 0 -258 -67 -11 c-129 -22 -240 -99
-290 -201 -46 -93 -124 -294 -134 -343 -17 -92 14 -210 77 -292 19 -25 34 -48
34 -52 0 -10 -353 -363 -362 -363 -4 0 -28 15 -53 34 -82 63 -200 94 -292 77
-49 -10 -250 -88 -343 -134 -102 -50 -179 -161 -201 -289 l-11 -68 -258 0
-258 0 -11 68 c-22 128 -99 239 -201 289 -93 46 -294 124 -343 134 -92 17
-210 -14 -292 -77 -25 -19 -49 -34 -53 -34 -9 0 -362 353 -362 363 0 4 15 27
34 52 63 82 94 200 77 292 -10 49 -88 250 -134 343 -50 102 -161 179 -289 201
l-68 11 0 258 0 258 68 11 c128 22 239 99 289 201 46 93 124 294 134 343 17
92 -14 210 -77 292 -19 25 -34 48 -34 52 0 10 353 363 362 363 4 0 28 -15 53
-34 82 -63 200 -94 292 -77 49 10 250 88 343 134 102 50 179 161 201 290 l11
67 258 0 258 0 11 -67z"/>
<path d="M2430 3825 c-8 -2 -49 -9 -90 -15 -443 -72 -844 -420 -988 -860 -99
-301 -73 -669 68 -951 225 -449 694 -728 1190 -706 248 11 445 75 655 215 404
269 621 754 551 1230 -43 289 -178 549 -386 745 -173 163 -379 270 -621 323
-67 14 -341 29 -379 19z m283 -360 c745 -130 1025 -1045 481 -1566 -81 -77
-132 -113 -231 -163 -369 -185 -831 -90 -1101 227 -316 371 -288 920 64 1258
80 76 132 113 229 162 172 87 366 116 558 82z"/>
</g>
</svg>
