<?xml version="1.0" standalone="no"?>
<!DOCTYPE svg PUBLIC "-//W3C//DTD SVG 20010904//EN"
 "http://www.w3.org/TR/2001/REC-SVG-20010904/DTD/svg10.dtd">
<svg version="1.0" xmlns="http://www.w3.org/2000/svg"
 width="200.000000pt" height="200.000000pt" viewBox="0 0 200.000000 200.000000"
 preserveAspectRatio="xMidYMid meet">

<g transform="translate(0.000000,200.000000) scale(0.100000,-0.100000)"
fill="#000000" stroke="none">
<path d="M930 1855 c-61 -19 -113 -65 -140 -122 -31 -66 -26 -163 12 -220 l27
-40 -56 -6 c-61 -6 -94 -24 -120 -64 -16 -24 -18 -58 -21 -268 -2 -132 -1
-259 3 -282 8 -55 46 -100 96 -113 l39 -11 0 -313 c0 -290 1 -314 18 -329 16
-15 46 -17 214 -17 176 0 196 2 211 18 15 16 17 54 17 330 l0 311 39 11 c50
13 88 58 96 113 4 23 5 150 3 282 -3 210 -5 244 -21 268 -26 40 -59 58 -120
64 l-56 6 27 39 c58 88 32 239 -51 302 -37 28 -114 57 -151 55 -12 0 -41 -7
-66 -14z m133 -69 c70 -29 117 -122 98 -191 -21 -78 -82 -125 -161 -125 -145
0 -219 167 -121 274 49 53 119 70 184 42z m217 -406 c19 -19 20 -33 20 -277 0
-250 -1 -257 -22 -280 -45 -48 -48 -38 -48 177 l0 200 -30 0 -30 0 -2 -532 -3
-533 -65 0 -65 0 -3 333 -2 332 -30 0 -30 0 -2 -332 -3 -333 -65 0 -65 0 -3
533 -2 532 -30 0 -30 0 0 -200 c0 -171 -2 -200 -15 -200 -8 0 -24 9 -35 20
-19 19 -20 33 -20 280 0 247 1 261 20 280 19 19 33 20 280 20 247 0 261 -1
280 -20z"/>
<path d="M649 1762 c-163 -70 -333 -218 -421 -368 -52 -89 -101 -224 -117
-324 -62 -381 147 -776 499 -944 41 -20 79 -36 85 -36 7 0 9 14 7 34 -3 30
-10 36 -65 62 -228 107 -402 332 -453 586 -23 111 -15 295 16 393 26 82 80
193 121 250 81 110 223 227 342 279 30 14 57 33 60 43 2 10 8 26 12 36 10 24
-8 22 -86 -11z"/>
<path d="M1260 1786 c0 -2 7 -19 14 -38 12 -27 26 -40 66 -56 104 -43 250
-160 328 -262 166 -216 208 -535 106 -802 -69 -181 -234 -358 -411 -442 -55
-26 -62 -32 -65 -62 -2 -21 0 -34 7 -34 6 0 47 17 91 39 236 114 409 330 480
597 14 52 18 104 18 214 -1 127 -4 156 -28 233 -67 223 -194 394 -380 515 -90
58 -226 117 -226 98z"/>
<path d="M526 1349 c-102 -113 -156 -257 -156 -414 0 -202 90 -386 247 -504
38 -28 71 -51 76 -51 4 0 7 18 7 40 0 22 -4 40 -9 40 -5 0 -35 24 -67 53 -210
191 -251 504 -96 730 25 37 37 68 42 105 3 28 5 52 4 52 -1 0 -23 -23 -48 -51z"/>
<path d="M1430 1349 c5 -39 17 -69 42 -106 155 -226 113 -544 -97 -731 -33
-28 -63 -52 -67 -52 -4 0 -8 -18 -8 -40 0 -22 3 -40 8 -40 4 0 37 23 74 50 76
57 147 146 189 235 107 228 67 505 -99 686 l-48 52 6 -54z"/>
</g>
</svg>
