<?xml version="1.0" standalone="no"?>
<!DOCTYPE svg PUBLIC "-//W3C//DTD SVG 20010904//EN"
 "http://www.w3.org/TR/2001/REC-SVG-20010904/DTD/svg10.dtd">
<svg version="1.0" xmlns="http://www.w3.org/2000/svg"
 width="200.000000pt" height="200.000000pt" viewBox="0 0 200.000000 200.000000"
 preserveAspectRatio="xMidYMid meet">

<g transform="translate(0.000000,200.000000) scale(0.100000,-0.100000)"
fill="#000000" stroke="none">
<path d="M982 1587 c-9 -10 -6 -22 13 -47 l25 -34 -52 -11 c-58 -12 -107 -35
-127 -59 -10 -11 -18 -13 -31 -6 -54 29 -145 -2 -175 -59 -42 -82 18 -191 107
-191 20 0 32 -10 53 -45 14 -25 37 -52 50 -61 20 -13 25 -25 25 -61 0 -39 5
-51 39 -84 35 -35 44 -39 91 -39 47 0 56 4 91 39 33 33 39 45 39 81 0 36 7 49
45 92 25 28 45 56 45 64 0 9 11 14 33 14 42 0 92 31 112 69 46 91 -19 191
-126 191 -35 0 -48 -6 -80 -39 -35 -35 -39 -44 -39 -89 0 -43 5 -57 30 -85 17
-19 30 -40 30 -47 0 -16 -48 -80 -60 -80 -5 0 -26 11 -46 25 -56 38 -133 29
-174 -20 -12 -14 -15 -14 -33 2 -11 10 -28 31 -38 47 l-18 30 35 39 c33 36 35
43 31 90 -2 29 -8 62 -11 73 -7 18 0 25 45 48 29 14 66 26 83 26 l30 0 -37
-38 c-39 -40 -45 -57 -23 -65 8 -3 38 19 71 53 l58 59 -38 56 c-49 70 -59 79
-73 62z m-167 -212 c56 -56 18 -155 -60 -155 -48 0 -95 45 -95 90 0 76 102
119 155 65z m496 -4 c20 -20 29 -39 29 -61 0 -45 -47 -90 -95 -90 -51 0 -85
36 -85 90 0 85 90 121 151 61z m-250 -290 c60 -61 24 -151 -61 -151 -85 0
-121 90 -61 151 40 39 82 39 122 0z"/>
<path d="M930 831 c-83 -27 -148 -90 -174 -168 -12 -35 -16 -76 -14 -134 l3
-84 255 0 255 0 3 78 c2 49 -3 98 -12 131 -18 62 -73 129 -129 158 -45 22
-145 33 -187 19z m155 -50 c89 -40 127 -103 133 -218 l5 -83 -223 0 -223 0 5
83 c3 47 11 95 20 112 39 74 120 125 198 125 25 0 63 -9 85 -19z"/>
</g>
</svg>
