<?xml version="1.0" standalone="no"?>
<!DOCTYPE svg PUBLIC "-//W3C//DTD SVG 20010904//EN"
 "http://www.w3.org/TR/2001/REC-SVG-20010904/DTD/svg10.dtd">
<svg version="1.0" xmlns="http://www.w3.org/2000/svg"
 width="200.000000pt" height="200.000000pt" viewBox="0 0 200.000000 200.000000"
 preserveAspectRatio="xMidYMid meet">

<g transform="translate(0.000000,200.000000) scale(0.100000,-0.100000)"
fill="#000000" stroke="none">
<path d="M290 1762 c0 -65 26 -178 66 -290 27 -72 27 -72 91 -103 81 -39 115
-86 121 -168 3 -43 -1 -70 -16 -103 l-19 -45 38 -77 c33 -65 185 -353 366
-693 21 -40 40 -73 43 -73 3 0 11 9 18 20 18 29 343 643 393 741 l40 81 -20
49 c-24 54 -26 86 -10 144 14 51 84 120 138 136 39 12 41 15 71 98 41 112 70
234 70 294 l0 47 -167 0 -168 0 -79 -263 c-102 -338 -238 -812 -261 -905 -10
-41 -21 -70 -24 -65 -4 4 -29 89 -56 188 -26 99 -100 351 -163 560 -62 209
-121 404 -129 433 l-16 52 -163 0 -164 0 0 -58z"/>
<path d="M647 1800 c3 -10 61 -67 129 -125 68 -59 129 -116 135 -127 9 -17 1
-36 -51 -121 -33 -56 -60 -110 -58 -121 2 -15 12 -5 39 39 l37 59 19 -85 19
-84 56 -3 c66 -3 65 -4 93 101 10 37 21 67 24 67 3 0 19 -23 36 -50 18 -32 33
-46 39 -40 6 6 -14 46 -53 111 -44 72 -61 108 -56 123 3 12 61 68 130 126 76
64 124 112 125 124 0 14 -16 5 -67 -40 -192 -165 -213 -186 -213 -210 0 -22
-4 -24 -44 -24 -40 0 -44 2 -49 29 -4 21 -41 58 -139 143 -154 132 -158 135
-151 108z"/>
<path d="M905 1111 l-27 -99 49 -176 c26 -97 50 -176 53 -176 3 0 27 76 53
169 l49 170 -27 88 c-14 48 -28 96 -31 106 -4 13 -16 17 -48 17 l-44 0 -27
-99z"/>
</g>
</svg>
