<?xml version="1.0" encoding="UTF-8" standalone="no"?>
<!DOCTYPE svg PUBLIC "-//W3C//DTD SVG 1.1//EN" "http://www.w3.org/Graphics/SVG/1.1/DTD/svg11.dtd">
<svg width="100%" height="100%" viewBox="0 0 2000 300" version="1.1" xmlns="http://www.w3.org/2000/svg" xmlns:xlink="http://www.w3.org/1999/xlink" xml:space="preserve" xmlns:serif="http://www.serif.com/" style="fill-rule:evenodd;clip-rule:evenodd;stroke-linejoin:round;stroke-miterlimit:2;">
    <g transform="matrix(0.992132,0,0,0.947503,1.8519,0)">
        <g transform="matrix(0.985255,0,0,0.952719,19.5035,0)">
            <path d="M2000,0L0,0L286.585,300L1708.54,298.714L2000,0Z" style="fill:#444444;"/>
            <path d="M2023.13,26.467C2033.14,16.209 2036.36,0.382 2031.27,-13.482C2026.17,-27.345 2013.78,-36.442 2000,-36.442L0,-36.442C-13.715,-36.442 -26.058,-27.429 -31.199,-13.66C-36.34,0.109 -33.251,15.878 -23.39,26.201L263.195,326.201C269.478,332.777 277.876,336.45 286.614,336.442L1708.57,335.156C1717.17,335.148 1725.43,331.579 1731.68,325.181L2023.13,26.467ZM2000,0L0,0L286.585,300L1708.54,298.714L2000,0Z" style="fill:rgb(0,131,255);"/>
        </g>
        <g transform="matrix(0.639871,0.639871,-0.597641,0.597641,95.3047,-57.9983)">
            <path d="M1011.43,-545.185L982.512,-577.936L412.05,26.734L71.717,30.008L26.382,80.836L427.277,79.01L1011.43,-545.185Z" style="fill:rgb(252,255,0);"/>
        </g>
    </g>
</svg>
